<svg width="210" height="32" viewBox="0 0 210 32" fill="none" xmlns="http://www.w3.org/2000/svg">
<path d="M23.0879 18.492C27.7272 19.5288 29.629 22.596 30 24H26.0167M23.0879 18.492L26.0167 24M23.0879 18.492C20.5886 14.1936 14.5238 6.15406 10.2594 8.38319L13.7155 16.1916M26.0167 24H17.1715M17.1715 24L13.7155 16.1916M17.1715 24H10.2594M13.7155 16.1916C12.583 14.5608 9.27531 11.4418 5.1046 12.012L7.68201 18.006M10.2594 24L7.68201 18.006M10.2594 24H2L3.99163 21.732L2 16.1916C3.64017 15.4399 6.47141 17.088 7.68201 18.006" stroke="#393833" stroke-width="2" stroke-linejoin="round"/>
<path d="M41.7029 22.5V9.40909H49.8208V11.1094H43.678V15.098H49.2391V16.7919H43.678V22.5H41.7029ZM54.9184 22.7173C54.2963 22.7173 53.7338 22.6023 53.2309 22.3722C52.7281 22.1378 52.3296 21.799 52.0356 21.3558C51.7458 20.9126 51.6009 20.3693 51.6009 19.7259C51.6009 19.1719 51.7075 18.7159 51.9205 18.358C52.1336 18 52.4213 17.7166 52.7835 17.5078C53.1457 17.299 53.5505 17.1413 53.998 17.0348C54.4454 16.9283 54.9014 16.8473 55.3659 16.7919C55.9539 16.7237 56.4312 16.6683 56.7977 16.6257C57.1642 16.5788 57.4305 16.5043 57.5967 16.402C57.7629 16.2997 57.846 16.1335 57.846 15.9034V15.8587C57.846 15.3004 57.6883 14.8679 57.373 14.5611C57.0619 14.2543 56.5974 14.1009 55.9795 14.1009C55.336 14.1009 54.8289 14.2436 54.4582 14.5291C54.0917 14.8104 53.8382 15.1236 53.6975 15.4688L51.9014 15.0597C52.1144 14.4631 52.4255 13.9815 52.8346 13.6151C53.248 13.2443 53.7231 12.9759 54.26 12.8097C54.797 12.6392 55.3616 12.554 55.9539 12.554C56.346 12.554 56.7615 12.6009 57.2004 12.6946C57.6436 12.7841 58.0569 12.9503 58.4404 13.1932C58.8282 13.4361 59.1457 13.7834 59.3928 14.2351C59.64 14.6825 59.7636 15.2642 59.7636 15.9801V22.5H57.8971V21.1577H57.8204C57.6968 21.4048 57.5115 21.6477 57.2643 21.8864C57.0171 22.125 56.6997 22.3232 56.3119 22.4808C55.9241 22.6385 55.4596 22.7173 54.9184 22.7173ZM55.3339 21.1832C55.8623 21.1832 56.314 21.0788 56.689 20.87C57.0683 20.6612 57.3559 20.3885 57.5519 20.0518C57.7522 19.7109 57.8524 19.3466 57.8524 18.9588V17.6932C57.7842 17.7614 57.6521 17.8253 57.4561 17.8849C57.2643 17.9403 57.0448 17.9893 56.7977 18.032C56.5505 18.0703 56.3097 18.1065 56.0754 18.1406C55.841 18.1705 55.645 18.196 55.4873 18.2173C55.1166 18.2642 54.7778 18.343 54.471 18.4538C54.1684 18.5646 53.9255 18.7244 53.7423 18.9332C53.5633 19.1378 53.4738 19.4105 53.4738 19.7514C53.4738 20.2244 53.6485 20.5824 53.998 20.8253C54.3474 21.0639 54.7927 21.1832 55.3339 21.1832ZM70.3568 12.6818L66.7964 22.5H64.751L61.1842 12.6818H63.2361L65.7226 20.2372H65.8248L68.305 12.6818H70.3568ZM76.0505 22.6982C75.0832 22.6982 74.2501 22.4915 73.5512 22.0781C72.8566 21.6605 72.3197 21.0746 71.9404 20.3203C71.5654 19.5618 71.3779 18.6733 71.3779 17.6548C71.3779 16.6491 71.5654 15.7628 71.9404 14.9957C72.3197 14.2287 72.8481 13.63 73.5257 13.1996C74.2075 12.7692 75.0044 12.554 75.9163 12.554C76.4703 12.554 77.0072 12.6456 77.5271 12.8288C78.047 13.0121 78.5136 13.2997 78.9269 13.6918C79.3403 14.0838 79.6663 14.593 79.9049 15.2195C80.1436 15.8416 80.2629 16.598 80.2629 17.4886V18.1662H72.4582V16.7344H78.39C78.39 16.2315 78.2877 15.7862 78.0832 15.3984C77.8786 15.0064 77.591 14.6974 77.2203 14.4716C76.8538 14.2457 76.4234 14.1328 75.9291 14.1328C75.3921 14.1328 74.9234 14.2649 74.5228 14.5291C74.1265 14.7891 73.8197 15.13 73.6024 15.5518C73.3893 15.9695 73.2828 16.4233 73.2828 16.9134V18.032C73.2828 18.6882 73.3978 19.2464 73.6279 19.7067C73.8623 20.1669 74.1883 20.5185 74.6059 20.7614C75.0235 21 75.5115 21.1193 76.0697 21.1193C76.4319 21.1193 76.7622 21.0682 77.0605 20.9659C77.3588 20.8594 77.6166 20.7017 77.8339 20.4929C78.0512 20.2841 78.2174 20.0263 78.3325 19.7195L80.1414 20.0455C79.9965 20.5781 79.7366 21.0447 79.3616 21.4453C78.9909 21.8416 78.5242 22.1506 77.9617 22.3722C77.4035 22.5895 76.7664 22.6982 76.0505 22.6982ZM84.2947 9.40909V22.5H82.3834V9.40909H84.2947ZM89.7231 22.7173C89.1009 22.7173 88.5384 22.6023 88.0356 22.3722C87.5328 22.1378 87.1343 21.799 86.8403 21.3558C86.5505 20.9126 86.4056 20.3693 86.4056 19.7259C86.4056 19.1719 86.5122 18.7159 86.7252 18.358C86.9383 18 87.2259 17.7166 87.5882 17.5078C87.9504 17.299 88.3552 17.1413 88.8026 17.0348C89.2501 16.9283 89.7061 16.8473 90.1705 16.7919C90.7586 16.7237 91.2359 16.6683 91.6024 16.6257C91.9688 16.5788 92.2352 16.5043 92.4014 16.402C92.5676 16.2997 92.6507 16.1335 92.6507 15.9034V15.8587C92.6507 15.3004 92.493 14.8679 92.1776 14.5611C91.8666 14.2543 91.4021 14.1009 90.7842 14.1009C90.1407 14.1009 89.6336 14.2436 89.2629 14.5291C88.8964 14.8104 88.6428 15.1236 88.5022 15.4688L86.7061 15.0597C86.9191 14.4631 87.2302 13.9815 87.6393 13.6151C88.0526 13.2443 88.5278 12.9759 89.0647 12.8097C89.6017 12.6392 90.1663 12.554 90.7586 12.554C91.1507 12.554 91.5661 12.6009 92.0051 12.6946C92.4482 12.7841 92.8616 12.9503 93.2451 13.1932C93.6329 13.4361 93.9504 13.7834 94.1975 14.2351C94.4447 14.6825 94.5683 15.2642 94.5683 15.9801V22.5H92.7018V21.1577H92.6251C92.5015 21.4048 92.3161 21.6477 92.069 21.8864C91.8218 22.125 91.5044 22.3232 91.1166 22.4808C90.7288 22.6385 90.2643 22.7173 89.7231 22.7173ZM90.1386 21.1832C90.667 21.1832 91.1187 21.0788 91.4937 20.87C91.873 20.6612 92.1606 20.3885 92.3566 20.0518C92.5569 19.7109 92.657 19.3466 92.657 18.9588V17.6932C92.5889 17.7614 92.4568 17.8253 92.2607 17.8849C92.069 17.9403 91.8495 17.9893 91.6024 18.032C91.3552 18.0703 91.1144 18.1065 90.8801 18.1406C90.6457 18.1705 90.4497 18.196 90.292 18.2173C89.9213 18.2642 89.5825 18.343 89.2757 18.4538C88.9731 18.5646 88.7302 18.7244 88.547 18.9332C88.368 19.1378 88.2785 19.4105 88.2785 19.7514C88.2785 20.2244 88.4532 20.5824 88.8026 20.8253C89.1521 21.0639 89.5974 21.1832 90.1386 21.1832ZM101.385 11.1094V9.40909H111.517V11.1094H107.432V22.5H105.464V11.1094H101.385ZM112.583 22.5V12.6818H114.43V14.2415H114.532C114.711 13.7131 115.027 13.2976 115.478 12.995C115.934 12.6882 116.45 12.5348 117.025 12.5348C117.144 12.5348 117.285 12.5391 117.447 12.5476C117.613 12.5561 117.743 12.5668 117.837 12.5795V14.4077C117.76 14.3864 117.624 14.3629 117.428 14.3374C117.232 14.3075 117.036 14.2926 116.84 14.2926C116.388 14.2926 115.985 14.3885 115.632 14.5803C115.282 14.7678 115.005 15.0298 114.801 15.3665C114.596 15.6989 114.494 16.0781 114.494 16.5043V22.5H112.583ZM119.491 22.5V12.6818H121.402V22.5H119.491ZM120.456 11.1669C120.124 11.1669 119.838 11.0561 119.6 10.8345C119.365 10.6087 119.248 10.3402 119.248 10.0291C119.248 9.71378 119.365 9.44531 119.6 9.22372C119.838 8.99787 120.124 8.88494 120.456 8.88494C120.788 8.88494 121.072 8.99787 121.306 9.22372C121.545 9.44531 121.664 9.71378 121.664 10.0291C121.664 10.3402 121.545 10.6087 121.306 10.8345C121.072 11.0561 120.788 11.1669 120.456 11.1669ZM123.973 26.1818V12.6818H125.84V14.2734H126C126.11 14.0689 126.27 13.8324 126.479 13.5639C126.688 13.2955 126.978 13.0611 127.348 12.8608C127.719 12.6562 128.209 12.554 128.818 12.554C129.611 12.554 130.318 12.7543 130.941 13.1548C131.563 13.5554 132.051 14.1328 132.404 14.8871C132.762 15.6413 132.941 16.549 132.941 17.6101C132.941 18.6712 132.764 19.581 132.411 20.3395C132.057 21.0937 131.571 21.6754 130.953 22.0845C130.335 22.4893 129.63 22.6918 128.838 22.6918C128.241 22.6918 127.753 22.5916 127.374 22.3913C126.999 22.1911 126.705 21.9567 126.492 21.6882C126.279 21.4197 126.115 21.1811 126 20.9723H125.884V26.1818H123.973ZM125.846 17.5909C125.846 18.2812 125.946 18.8864 126.147 19.4062C126.347 19.9261 126.637 20.3331 127.016 20.6271C127.395 20.9169 127.86 21.0618 128.409 21.0618C128.98 21.0618 129.458 20.9105 129.841 20.608C130.225 20.3011 130.514 19.8857 130.71 19.3615C130.911 18.8374 131.011 18.2472 131.011 17.5909C131.011 16.9432 130.913 16.3615 130.717 15.8459C130.525 15.3303 130.235 14.9233 129.848 14.625C129.464 14.3267 128.985 14.1776 128.409 14.1776C127.855 14.1776 127.387 14.3203 127.003 14.6058C126.624 14.8913 126.336 15.2898 126.14 15.8011C125.944 16.3125 125.846 16.9091 125.846 17.5909ZM142.44 15.0788L140.708 15.3857C140.635 15.1641 140.52 14.9531 140.362 14.7528C140.209 14.5526 140 14.3885 139.736 14.2607C139.472 14.1328 139.142 14.0689 138.745 14.0689C138.204 14.0689 137.752 14.1903 137.39 14.4332C137.028 14.6719 136.847 14.9808 136.847 15.3601C136.847 15.6882 136.968 15.9524 137.211 16.1527C137.454 16.353 137.846 16.517 138.387 16.6449L139.947 17.0028C140.85 17.2116 141.524 17.5334 141.967 17.968C142.41 18.4027 142.632 18.9673 142.632 19.6619C142.632 20.25 142.461 20.7741 142.12 21.2344C141.784 21.6903 141.313 22.0483 140.708 22.3082C140.107 22.5682 139.41 22.6982 138.617 22.6982C137.518 22.6982 136.621 22.4638 135.926 21.995C135.232 21.522 134.806 20.8509 134.648 19.9815L136.495 19.7003C136.61 20.1818 136.847 20.5462 137.205 20.7933C137.563 21.0362 138.029 21.1577 138.605 21.1577C139.231 21.1577 139.732 21.0277 140.107 20.7678C140.482 20.5036 140.669 20.1818 140.669 19.8026C140.669 19.4957 140.554 19.2379 140.324 19.0291C140.098 18.8203 139.751 18.6626 139.282 18.5561L137.62 18.1918C136.704 17.983 136.027 17.6506 135.588 17.1946C135.153 16.7386 134.936 16.1612 134.936 15.4624C134.936 14.8828 135.098 14.3757 135.421 13.9411C135.745 13.5064 136.193 13.1676 136.764 12.9247C137.335 12.6776 137.989 12.554 138.726 12.554C139.787 12.554 140.622 12.7841 141.232 13.2443C141.841 13.7003 142.244 14.3118 142.44 15.0788ZM149.65 22.5V9.40909H154.444C155.373 9.40909 156.142 9.5625 156.752 9.86932C157.361 10.1719 157.817 10.5831 158.12 11.103C158.422 11.6186 158.573 12.2003 158.573 12.848C158.573 13.3935 158.473 13.8537 158.273 14.2287C158.073 14.5994 157.804 14.8977 157.468 15.1236C157.135 15.3452 156.769 15.5071 156.368 15.6094V15.7372C156.803 15.7585 157.227 15.8991 157.64 16.1591C158.058 16.4148 158.403 16.7791 158.676 17.2521C158.948 17.7251 159.085 18.3004 159.085 18.978C159.085 19.647 158.927 20.2479 158.612 20.7805C158.301 21.3089 157.819 21.7287 157.167 22.0398C156.515 22.3466 155.682 22.5 154.668 22.5H149.65ZM151.625 20.8061H154.476C155.422 20.8061 156.1 20.6229 156.509 20.2564C156.918 19.8899 157.122 19.4318 157.122 18.8821C157.122 18.4687 157.018 18.0895 156.809 17.7443C156.6 17.3991 156.302 17.1243 155.914 16.9197C155.531 16.7152 155.075 16.6129 154.546 16.6129H151.625V20.8061ZM151.625 15.0724H154.272C154.715 15.0724 155.113 14.9872 155.467 14.8168C155.825 14.6463 156.108 14.4077 156.317 14.1009C156.53 13.7898 156.637 13.4233 156.637 13.0014C156.637 12.4602 156.447 12.0064 156.068 11.6399C155.688 11.2734 155.107 11.0902 154.323 11.0902H151.625V15.0724ZM165.41 22.6982C164.489 22.6982 163.686 22.4872 163 22.0653C162.314 21.6435 161.781 21.0533 161.402 20.2947C161.023 19.5362 160.833 18.6499 160.833 17.6357C160.833 16.6172 161.023 15.7266 161.402 14.9638C161.781 14.201 162.314 13.6087 163 13.1868C163.686 12.7649 164.489 12.554 165.41 12.554C166.33 12.554 167.133 12.7649 167.82 13.1868C168.506 13.6087 169.038 14.201 169.418 14.9638C169.797 15.7266 169.986 16.6172 169.986 17.6357C169.986 18.6499 169.797 19.5362 169.418 20.2947C169.038 21.0533 168.506 21.6435 167.82 22.0653C167.133 22.4872 166.33 22.6982 165.41 22.6982ZM165.416 21.0938C166.013 21.0938 166.507 20.9361 166.899 20.6207C167.291 20.3054 167.581 19.8857 167.768 19.3615C167.96 18.8374 168.056 18.2599 168.056 17.6293C168.056 17.0028 167.96 16.4276 167.768 15.9034C167.581 15.375 167.291 14.951 166.899 14.6314C166.507 14.3118 166.013 14.152 165.416 14.152C164.815 14.152 164.317 14.3118 163.92 14.6314C163.528 14.951 163.236 15.375 163.045 15.9034C162.857 16.4276 162.763 17.0028 162.763 17.6293C162.763 18.2599 162.857 18.8374 163.045 19.3615C163.236 19.8857 163.528 20.3054 163.92 20.6207C164.317 20.9361 164.815 21.0938 165.416 21.0938ZM176.236 26.3864C175.456 26.3864 174.785 26.2841 174.223 26.0795C173.665 25.875 173.209 25.6044 172.855 25.2678C172.501 24.9311 172.237 24.5625 172.062 24.1619L173.705 23.4844C173.82 23.6719 173.973 23.87 174.165 24.0788C174.361 24.2919 174.625 24.473 174.958 24.6222C175.294 24.7713 175.727 24.8459 176.255 24.8459C176.98 24.8459 177.579 24.669 178.052 24.3153C178.525 23.9659 178.761 23.4077 178.761 22.6406V20.7102H178.64C178.525 20.919 178.358 21.1513 178.141 21.407C177.928 21.6626 177.634 21.8842 177.259 22.0717C176.884 22.2592 176.396 22.353 175.795 22.353C175.02 22.353 174.321 22.1719 173.699 21.8097C173.081 21.4432 172.591 20.9041 172.228 20.1925C171.87 19.4766 171.691 18.5966 171.691 17.5526C171.691 16.5085 171.868 15.6136 172.222 14.8679C172.58 14.1222 173.07 13.5511 173.692 13.1548C174.314 12.7543 175.02 12.554 175.808 12.554C176.417 12.554 176.91 12.6562 177.285 12.8608C177.66 13.0611 177.951 13.2955 178.16 13.5639C178.373 13.8324 178.537 14.0689 178.652 14.2734H178.793V12.6818H180.666V22.7173C180.666 23.5611 180.47 24.2536 180.078 24.7947C179.686 25.3359 179.155 25.7365 178.486 25.9964C177.821 26.2564 177.071 26.3864 176.236 26.3864ZM176.217 20.7678C176.767 20.7678 177.231 20.6399 177.611 20.3842C177.994 20.1243 178.284 19.7536 178.48 19.272C178.68 18.7862 178.78 18.2045 178.78 17.527C178.78 16.8665 178.682 16.2848 178.486 15.782C178.29 15.2791 178.003 14.8871 177.623 14.6058C177.244 14.3203 176.775 14.1776 176.217 14.1776C175.642 14.1776 175.162 14.3267 174.779 14.625C174.395 14.919 174.106 15.3196 173.91 15.8267C173.718 16.3338 173.622 16.9006 173.622 17.527C173.622 18.1705 173.72 18.7351 173.916 19.2209C174.112 19.7067 174.402 20.0859 174.785 20.3587C175.173 20.6314 175.65 20.7678 176.217 20.7678ZM187.365 22.6982C186.444 22.6982 185.641 22.4872 184.955 22.0653C184.269 21.6435 183.736 21.0533 183.357 20.2947C182.978 19.5362 182.788 18.6499 182.788 17.6357C182.788 16.6172 182.978 15.7266 183.357 14.9638C183.736 14.201 184.269 13.6087 184.955 13.1868C185.641 12.7649 186.444 12.554 187.365 12.554C188.285 12.554 189.089 12.7649 189.775 13.1868C190.461 13.6087 190.993 14.201 191.373 14.9638C191.752 15.7266 191.941 16.6172 191.941 17.6357C191.941 18.6499 191.752 19.5362 191.373 20.2947C190.993 21.0533 190.461 21.6435 189.775 22.0653C189.089 22.4872 188.285 22.6982 187.365 22.6982ZM187.371 21.0938C187.968 21.0938 188.462 20.9361 188.854 20.6207C189.246 20.3054 189.536 19.8857 189.723 19.3615C189.915 18.8374 190.011 18.2599 190.011 17.6293C190.011 17.0028 189.915 16.4276 189.723 15.9034C189.536 15.375 189.246 14.951 188.854 14.6314C188.462 14.3118 187.968 14.152 187.371 14.152C186.77 14.152 186.272 14.3118 185.875 14.6314C185.483 14.951 185.191 15.375 185 15.9034C184.812 16.4276 184.718 17.0028 184.718 17.6293C184.718 18.2599 184.812 18.8374 185 19.3615C185.191 19.8857 185.483 20.3054 185.875 20.6207C186.272 20.9361 186.77 21.0938 187.371 21.0938ZM198.658 12.6818V14.2159H193.295V12.6818H198.658ZM194.733 10.3295H196.644V19.6172C196.644 19.9879 196.7 20.267 196.811 20.4545C196.921 20.6378 197.064 20.7635 197.239 20.8317C197.418 20.8956 197.612 20.9276 197.821 20.9276C197.974 20.9276 198.108 20.9169 198.223 20.8956C198.338 20.8743 198.428 20.8572 198.492 20.8445L198.837 22.4233C198.726 22.4659 198.568 22.5085 198.364 22.5511C198.159 22.598 197.904 22.6236 197.597 22.6278C197.094 22.6364 196.625 22.5469 196.191 22.3594C195.756 22.1719 195.404 21.8821 195.136 21.4901C194.867 21.098 194.733 20.6058 194.733 20.0135V10.3295ZM203.629 22.7173C203.007 22.7173 202.445 22.6023 201.942 22.3722C201.439 22.1378 201.041 21.799 200.747 21.3558C200.457 20.9126 200.312 20.3693 200.312 19.7259C200.312 19.1719 200.418 18.7159 200.631 18.358C200.845 18 201.132 17.7166 201.494 17.5078C201.857 17.299 202.261 17.1413 202.709 17.0348C203.156 16.9283 203.612 16.8473 204.077 16.7919C204.665 16.7237 205.142 16.6683 205.509 16.6257C205.875 16.5788 206.141 16.5043 206.308 16.402C206.474 16.2997 206.557 16.1335 206.557 15.9034V15.8587C206.557 15.3004 206.399 14.8679 206.084 14.5611C205.773 14.2543 205.308 14.1009 204.69 14.1009C204.047 14.1009 203.54 14.2436 203.169 14.5291C202.803 14.8104 202.549 15.1236 202.408 15.4688L200.612 15.0597C200.825 14.4631 201.136 13.9815 201.546 13.6151C201.959 13.2443 202.434 12.9759 202.971 12.8097C203.508 12.6392 204.073 12.554 204.665 12.554C205.057 12.554 205.472 12.6009 205.911 12.6946C206.354 12.7841 206.768 12.9503 207.151 13.1932C207.539 13.4361 207.857 13.7834 208.104 14.2351C208.351 14.6825 208.475 15.2642 208.475 15.9801V22.5H206.608V21.1577H206.531C206.408 21.4048 206.222 21.6477 205.975 21.8864C205.728 22.125 205.411 22.3232 205.023 22.4808C204.635 22.6385 204.171 22.7173 203.629 22.7173ZM204.045 21.1832C204.573 21.1832 205.025 21.0788 205.4 20.87C205.779 20.6612 206.067 20.3885 206.263 20.0518C206.463 19.7109 206.563 19.3466 206.563 18.9588V17.6932C206.495 17.7614 206.363 17.8253 206.167 17.8849C205.975 17.9403 205.756 17.9893 205.509 18.032C205.261 18.0703 205.021 18.1065 204.786 18.1406C204.552 18.1705 204.356 18.196 204.198 18.2173C203.828 18.2642 203.489 18.343 203.182 18.4538C202.879 18.5646 202.636 18.7244 202.453 18.9332C202.274 19.1378 202.185 19.4105 202.185 19.7514C202.185 20.2244 202.359 20.5824 202.709 20.8253C203.058 21.0639 203.504 21.1832 204.045 21.1832Z" fill="#393833"/>
</svg>
