<svg width="136" height="24" viewBox="0 0 136 24" fill="none" xmlns="http://www.w3.org/2000/svg">
<path d="M17.5627 21.0002C17.4028 21.0008 17.245 20.9631 17.1027 20.8902L12.0027 18.2202L6.90269 20.8902C6.73709 20.9773 6.55037 21.0162 6.36377 21.0024C6.17717 20.9887 5.99817 20.9228 5.84712 20.8124C5.69607 20.702 5.57903 20.5514 5.50931 20.3778C5.43958 20.2041 5.41997 20.0144 5.45269 19.8302L6.45269 14.2002L2.33269 10.2002C2.20415 10.0719 2.11296 9.91107 2.06892 9.7349C2.02488 9.55872 2.02964 9.37388 2.08269 9.2002C2.14065 9.02248 2.24727 8.86456 2.39044 8.74436C2.53362 8.62417 2.70761 8.54651 2.89269 8.5202L8.59269 7.6902L11.1027 2.5602C11.1846 2.39113 11.3124 2.24855 11.4716 2.14878C11.6308 2.04901 11.8148 1.99609 12.0027 1.99609C12.1905 1.99609 12.3746 2.04901 12.5338 2.14878C12.693 2.24855 12.8208 2.39113 12.9027 2.5602L15.4427 7.6802L21.1427 8.5102C21.3278 8.53651 21.5018 8.61417 21.6449 8.73436C21.7881 8.85456 21.8947 9.01248 21.9527 9.1902C22.0057 9.36388 22.0105 9.54872 21.9665 9.7249C21.9224 9.90107 21.8312 10.0619 21.7027 10.1902L17.5827 14.1902L18.5827 19.8202C18.6184 20.0077 18.5997 20.2015 18.5288 20.3787C18.4579 20.5559 18.3378 20.7091 18.1827 20.8202C18.0016 20.9471 17.7836 21.0104 17.5627 21.0002Z" fill="#FFC042"/>
<path d="M45.5627 21.0002C45.4028 21.0008 45.245 20.9631 45.1027 20.8902L40.0027 18.2202L34.9027 20.8902C34.7371 20.9773 34.5504 21.0162 34.3638 21.0024C34.1772 20.9887 33.9982 20.9228 33.8471 20.8124C33.6961 20.702 33.579 20.5514 33.5093 20.3778C33.4396 20.2041 33.42 20.0144 33.4527 19.8302L34.4527 14.2002L30.3327 10.2002C30.2041 10.0719 30.113 9.91107 30.0689 9.7349C30.0249 9.55872 30.0296 9.37388 30.0827 9.2002C30.1407 9.02248 30.2473 8.86456 30.3904 8.74436C30.5336 8.62417 30.7076 8.54651 30.8927 8.5202L36.5927 7.6902L39.1027 2.5602C39.1846 2.39113 39.3124 2.24855 39.4716 2.14878C39.6308 2.04901 39.8148 1.99609 40.0027 1.99609C40.1905 1.99609 40.3746 2.04901 40.5338 2.14878C40.693 2.24855 40.8208 2.39113 40.9027 2.5602L43.4427 7.6802L49.1427 8.5102C49.3278 8.53651 49.5018 8.61417 49.6449 8.73436C49.7881 8.85456 49.8947 9.01248 49.9527 9.1902C50.0057 9.36388 50.0105 9.54872 49.9665 9.7249C49.9224 9.90107 49.8312 10.0619 49.7027 10.1902L45.5827 14.1902L46.5827 19.8202C46.6184 20.0077 46.5997 20.2015 46.5288 20.3787C46.4579 20.5559 46.3378 20.7091 46.1827 20.8202C46.0016 20.9471 45.7836 21.0104 45.5627 21.0002Z" fill="#FFC042"/>
<path d="M73.5627 21.0002C73.4028 21.0008 73.245 20.9631 73.1027 20.8902L68.0027 18.2202L62.9027 20.8902C62.7371 20.9773 62.5504 21.0162 62.3638 21.0024C62.1772 20.9887 61.9982 20.9228 61.8471 20.8124C61.6961 20.702 61.579 20.5514 61.5093 20.3778C61.4396 20.2041 61.42 20.0144 61.4527 19.8302L62.4527 14.2002L58.3327 10.2002C58.2041 10.0719 58.113 9.91107 58.0689 9.7349C58.0249 9.55872 58.0296 9.37388 58.0827 9.2002C58.1407 9.02248 58.2473 8.86456 58.3904 8.74436C58.5336 8.62417 58.7076 8.54651 58.8927 8.5202L64.5927 7.6902L67.1027 2.5602C67.1846 2.39113 67.3124 2.24855 67.4716 2.14878C67.6308 2.04901 67.8148 1.99609 68.0027 1.99609C68.1905 1.99609 68.3746 2.04901 68.5338 2.14878C68.693 2.24855 68.8208 2.39113 68.9027 2.5602L71.4427 7.6802L77.1427 8.5102C77.3278 8.53651 77.5018 8.61417 77.6449 8.73436C77.7881 8.85456 77.8947 9.01248 77.9527 9.1902C78.0057 9.36388 78.0105 9.54872 77.9665 9.7249C77.9224 9.90107 77.8312 10.0619 77.7027 10.1902L73.5827 14.1902L74.5827 19.8202C74.6184 20.0077 74.5997 20.2015 74.5288 20.3787C74.4579 20.5559 74.3378 20.7091 74.1827 20.8202C74.0016 20.9471 73.7836 21.0104 73.5627 21.0002Z" fill="#FFC042"/>
<path d="M101.563 21.0002C101.403 21.0008 101.245 20.9631 101.103 20.8902L96.0027 18.2202L90.9027 20.8902C90.7371 20.9773 90.5504 21.0162 90.3638 21.0024C90.1772 20.9887 89.9982 20.9228 89.8471 20.8124C89.6961 20.702 89.579 20.5514 89.5093 20.3778C89.4396 20.2041 89.42 20.0144 89.4527 19.8302L90.4527 14.2002L86.3327 10.2002C86.2041 10.0719 86.113 9.91107 86.0689 9.7349C86.0249 9.55872 86.0296 9.37388 86.0827 9.2002C86.1407 9.02248 86.2473 8.86456 86.3904 8.74436C86.5336 8.62417 86.7076 8.54651 86.8927 8.5202L92.5927 7.6902L95.1027 2.5602C95.1846 2.39113 95.3124 2.24855 95.4716 2.14878C95.6308 2.04901 95.8148 1.99609 96.0027 1.99609C96.1905 1.99609 96.3746 2.04901 96.5338 2.14878C96.693 2.24855 96.8208 2.39113 96.9027 2.5602L99.4427 7.6802L105.143 8.5102C105.328 8.53651 105.502 8.61417 105.645 8.73436C105.788 8.85456 105.895 9.01248 105.953 9.1902C106.006 9.36388 106.011 9.54872 105.966 9.7249C105.922 9.90107 105.831 10.0619 105.703 10.1902L101.583 14.1902L102.583 19.8202C102.618 20.0077 102.6 20.2015 102.529 20.3787C102.458 20.5559 102.338 20.7091 102.183 20.8202C102.002 20.9471 101.784 21.0104 101.563 21.0002Z" fill="#FFC042"/>
<path d="M129.563 21.0002C129.403 21.0008 129.245 20.9631 129.103 20.8902L124.003 18.2202L118.903 20.8902C118.737 20.9773 118.55 21.0162 118.364 21.0024C118.177 20.9887 117.998 20.9228 117.847 20.8124C117.696 20.702 117.579 20.5514 117.509 20.3778C117.44 20.2041 117.42 20.0144 117.453 19.8302L118.453 14.2002L114.333 10.2002C114.204 10.0719 114.113 9.91107 114.069 9.7349C114.025 9.55872 114.03 9.37388 114.083 9.2002C114.141 9.02248 114.247 8.86456 114.39 8.74436C114.534 8.62417 114.708 8.54651 114.893 8.5202L120.593 7.6902L123.103 2.5602C123.185 2.39113 123.312 2.24855 123.472 2.14878C123.631 2.04901 123.815 1.99609 124.003 1.99609C124.191 1.99609 124.375 2.04901 124.534 2.14878C124.693 2.24855 124.821 2.39113 124.903 2.5602L127.443 7.6802L133.143 8.5102C133.328 8.53651 133.502 8.61417 133.645 8.73436C133.788 8.85456 133.895 9.01248 133.953 9.1902C134.006 9.36388 134.011 9.54872 133.966 9.7249C133.922 9.90107 133.831 10.0619 133.703 10.1902L129.583 14.1902L130.583 19.8202C130.618 20.0077 130.6 20.2015 130.529 20.3787C130.458 20.5559 130.338 20.7091 130.183 20.8202C130.002 20.9471 129.784 21.0104 129.563 21.0002Z" fill="#FFC042"/>
</svg>
